<?xml version="1.0" standalone="no"?><!DOCTYPE svg PUBLIC "-//W3C//DTD SVG 1.1//EN" "http://www.w3.org/Graphics/SVG/1.1/DTD/svg11.dtd"><svg class="icon" width="200px" height="116.63px" viewBox="0 0 1756 1024" version="1.1" xmlns="http://www.w3.org/2000/svg"><path d="M1718.857143 548.571429l-109.714286 0 0 256c0 40.374857-32.731429 73.142857-73.142857 73.142857-40.411429 0-73.142857-32.768-73.142857-73.142857l0-256-73.142857 0 0 402.285714c0 40.374857-32.731429 73.142857-73.142857 73.142857-40.374857 0-73.142857-32.768-73.142857-73.142857L1243.428571 548.571429 512 548.571429l0 402.285714c0 40.374857-32.768 73.142857-73.142857 73.142857s-73.142857-32.768-73.142857-73.142857L365.714286 548.571429 292.571429 548.571429l0 256c0 40.374857-32.768 73.142857-73.142857 73.142857s-73.142857-32.768-73.142857-73.142857l0-256L36.571429 548.571429c-20.224 0-36.571429-16.384-36.571429-36.571429 0-20.224 16.347429-36.571429 36.571429-36.571429l109.714286 0L146.285714 219.428571c0-40.374857 32.768-73.142857 73.142857-73.142857s73.142857 32.731429 73.142857 73.142857l0 256 73.142857 0L365.714286 73.142857c0-40.411429 32.768-73.142857 73.142857-73.142857s73.142857 32.731429 73.142857 73.142857l0 402.285714 731.428571 0L1243.428571 73.142857c0-40.411429 32.768-73.142857 73.142857-73.142857 40.411429 0 73.142857 32.731429 73.142857 73.142857l0 402.285714 73.142857 0L1462.857143 219.428571c0-40.374857 32.731429-73.142857 73.142857-73.142857 40.374857 0 73.142857 32.731429 73.142857 73.142857l0 256 109.714286 0c20.187429 0 36.571429 16.347429 36.571429 36.571429C1755.428571 532.224 1739.044571 548.571429 1718.857143 548.571429z" /></svg>